{
  "accessors": [
    {
      "bufferView": 2,
      "componentType": 5126,
      "count": 65533,
      "max": [
        0.4964579939842224,
        0.5174199938774109,
        0.4930950105190277
      ],
      "min": [
        -0.4964599907398224,
        0.09926500171422958,
        -0.26720699667930603
      ],
      "type": "VEC3"
    },
    {
      "bufferView": 2,
      "byteOffset": 786396,
      "componentType": 5126,
      "count": 65533,
      "max": [
        0.9999526739120483,
        0.999684751033783,
        0.9999799728393555
      ],
      "min": [
        -0.9996076226234436,
        -0.9999277591705322,
        -0.9999978542327881
      ],
      "type": "VEC3"
    },
    {
      "bufferView": 3,
      "componentType": 5126,
      "count": 65533,
      "max": [
        0.9999596476554871,
        0.9999685287475586,
        0.999988317489624,
        1.0
      ],
      "min": [
        -0.9999840259552002,
        -0.9961289167404175,
        -0.9791998863220215,
        -1.0
      ],
      "type": "VEC4"
    },
    {
      "bufferView": 1,
      "componentType": 5126,
      "count": 65533,
      "max": [
        0.9937319755554199,
        0.9356679916381836
      ],
      "min": [
        0.5373470187187195,
        0.09483599662780762
      ],
      "type": "VEC2"
    },
    {
      "bufferView": 0,
      "componentType": 5125,
      "count": 86379,
      "type": "SCALAR"
    },
    {
      "bufferView": 2,
      "byteOffset": 1572792,
      "componentType": 5126,
      "count": 65532,
      "max": [
        0.40485700964927673,
        0.43474799394607544,
        0.49231401085853577
      ],
      "min": [
        -0.49643099308013916,
        -0.517408013343811,
        -0.4931179881095886
      ],
      "type": "VEC3"
    },
    {
      "bufferView": 2,
      "byteOffset": 2359176,
      "componentType": 5126,
      "count": 65532,
      "max": [
        0.9995536208152771,
        1.0,
        0.999980092048645
      ],
      "min": [
        -0.9998326897621155,
        -0.9999784231185913,
        -0.9999978542327881
      ],
      "type": "VEC3"
    },
    {
      "bufferView": 3,
      "byteOffset": 1048528,
      "componentType": 5126,
      "count": 65532,
      "max": [
        0.9999334812164307,
        0.9999573230743408,
        1.0,
        1.0
      ],
      "min": [
        -0.9999093413352966,
        -0.999938428401947,
        -0.9998649954795837,
        -1.0
      ],
      "type": "VEC4"
    },
    {
      "bufferView": 1,
      "byteOffset": 524264,
      "componentType": 5126,
      "count": 65532,
      "max": [
        0.9301350116729736,
        0.8960220217704773
      ],
      "min": [
        0.12447299808263779,
        0.031769998371601105
      ],
      "type": "VEC2"
    },
    {
      "bufferView": 0,
      "byteOffset": 345516,
      "componentType": 5125,
      "count": 86706,
      "type": "SCALAR"
    },
    {
      "bufferView": 2,
      "byteOffset": 3145560,
      "componentType": 5126,
      "count": 65532,
      "max": [
        0.5163800120353699,
        0.43725699186325073,
        0.4930950105190277
      ],
      "min": [
        -0.282370001077652,
        -0.43722501397132874,
        -0.4931179881095886
      ],
      "type": "VEC3"
    },
    {
      "bufferView": 2,
      "byteOffset": 3931944,
      "componentType": 5126,
      "count": 65532,
      "max": [
        0.9999569654464722,
        0.9998793601989746,
        0.9999802112579346
      ],
      "min": [
        -0.9999183416366577,
        -0.9974769353866577,
        -0.9999977350234985
      ],
      "type": "VEC3"
    },
    {
      "bufferView": 3,
      "byteOffset": 2097040,
      "componentType": 5126,
      "count": 65532,
      "max": [
        1.0,
        0.9774439930915833,
        0.9999997615814209,
        1.0
      ],
      "min": [
        -0.9999906420707703,
        -0.9980949759483337,
        -0.999965250492096,
        -1.0
      ],
      "type": "VEC4"
    },
    {
      "bufferView": 1,
      "byteOffset": 1048520,
      "componentType": 5126,
      "count": 65532,
      "max": [
        0.9770600199699402,
        0.9187930226325989
      ],
      "min": [
        0.5355719923973083,
        0.029618000611662865
      ],
      "type": "VEC2"
    },
    {
      "bufferView": 0,
      "byteOffset": 692340,
      "componentType": 5125,
      "count": 85893,
      "type": "SCALAR"
    },
    {
      "bufferView": 2,
      "byteOffset": 4718328,
      "componentType": 5126,
      "count": 65533,
      "max": [
        0.5070970058441162,
        0.5041319727897644,
        0.49985599517822266
      ],
      "min": [
        -0.4608840048313141,
        -0.33966198563575745,
        -0.49237099289894104
      ],
      "type": "VEC3"
    },
    {
      "bufferView": 2,
      "byteOffset": 5504724,
      "componentType": 5126,
      "count": 65533,
      "max": [
        0.999875545501709,
        1.0,
        0.9999129772186279
      ],
      "min": [
        -0.999089777469635,
        -1.0,
        -0.9605885744094849
      ],
      "type": "VEC3"
    },
    {
      "bufferView": 3,
      "byteOffset": 3145552,
      "componentType": 5126,
      "count": 65533,
      "max": [
        0.9999736547470093,
        0.9943617582321167,
        0.9997556209564209,
        1.0
      ],
      "min": [
        -0.9998084902763367,
        -0.9999998211860657,
        -0.9510823488235474,
        -1.0
      ],
      "type": "VEC4"
    },
    {
      "bufferView": 1,
      "byteOffset": 1572776,
      "componentType": 5126,
      "count": 65533,
      "max": [
        0.9870439767837524,
        0.9207890033721924
      ],
      "min": [
        0.04281099885702133,
        0.013063999824225903
      ],
      "type": "VEC2"
    },
    {
      "bufferView": 0,
      "byteOffset": 1035912,
      "componentType": 5125,
      "count": 88002,
      "type": "SCALAR"
    },
    {
      "bufferView": 2,
      "byteOffset": 6291120,
      "componentType": 5126,
      "count": 65532,
      "max": [
        0.4958919882774353,
        0.4735110104084015,
        0.5141850113868713
      ],
      "min": [
        -0.5163750052452087,
        -0.43725499510765076,
        -0.5007690191268921
      ],
      "type": "VEC3"
    },
    {
      "bufferView": 2,
      "byteOffset": 7077504,
      "componentType": 5126,
      "count": 65532,
      "max": [
        0.9999898672103882,
        0.9972528219223022,
        0.9999507665634155
      ],
      "min": [
        -0.9999390840530396,
        -0.9997015595436096,
        -0.9999654293060303
      ],
      "type": "VEC3"
    },
    {
      "bufferView": 3,
      "byteOffset": 4194080,
      "componentType": 5126,
      "count": 65532,
      "max": [
        0.9999996423721313,
        0.8961958289146423,
        0.999992847442627,
        1.0
      ],
      "min": [
        -0.9999991059303284,
        -0.9963295459747314,
        -0.9999999403953552,
        -1.0
      ],
      "type": "VEC4"
    },
    {
      "bufferView": 1,
      "byteOffset": 2097040,
      "componentType": 5126,
      "count": 65532,
      "max": [
        0.9634079933166504,
        0.9864820241928101
      ],
      "min": [
        0.006816000211983919,
        0.013063999824225903
      ],
      "type": "VEC2"
    },
    {
      "bufferView": 0,
      "byteOffset": 1387920,
      "componentType": 5125,
      "count": 87207,
      "type": "SCALAR"
    },
    {
      "bufferView": 2,
      "byteOffset": 7863888,
      "componentType": 5126,
      "count": 65533,
      "max": [
        0.496425986289978,
        0.5041170120239258,
        0.48389101028442383
      ],
      "min": [
        -0.5153809785842896,
        -0.43725499510765076,
        -0.5142130255699158
      ],
      "type": "VEC3"
    },
    {
      "bufferView": 2,
      "byteOffset": 8650284,
      "componentType": 5126,
      "count": 65533,
      "max": [
        0.9998357892036438,
        0.9916302561759949,
        0.9999654293060303
      ],
      "min": [
        -0.9999183416366577,
        -0.999754011631012,
        -0.9998972415924072
      ],
      "type": "VEC3"
    },
    {
      "bufferView": 3,
      "byteOffset": 5242592,
      "componentType": 5126,
      "count": 65533,
      "max": [
        0.9999869465827942,
        0.996030867099762,
        0.9997329711914063,
        1.0
      ],
      "min": [
        -0.9999707937240601,
        -0.9995611906051636,
        -0.999748170375824,
        -1.0
      ],
      "type": "VEC4"
    },
    {
      "bufferView": 1,
      "byteOffset": 2621296,
      "componentType": 5126,
      "count": 65533,
      "max": [
        0.9870439767837524,
        0.9761109948158264
      ],
      "min": [
        0.04901000112295151,
        0.016933999955654144
      ],
      "type": "VEC2"
    },
    {
      "bufferView": 0,
      "byteOffset": 1736748,
      "componentType": 5125,
      "count": 87087,
      "type": "SCALAR"
    },
    {
      "bufferView": 2,
      "byteOffset": 9436680,
      "componentType": 5126,
      "count": 65532,
      "max": [
        0.4608680009841919,
        0.5174189805984497,
        0.3704099953174591
      ],
      "min": [
        -0.5070620179176331,
        -0.5174070000648499,
        -0.4931179881095886
      ],
      "type": "VEC3"
    },
    {
      "bufferView": 2,
      "byteOffset": 10223064,
      "componentType": 5126,
      "count": 65532,
      "max": [
        0.9999054670333862,
        0.9997543692588806,
        0.9999510049819946
      ],
      "min": [
        -0.9996854662895203,
        -0.999900221824646,
        -0.9998798370361328
      ],
      "type": "VEC3"
    },
    {
      "bufferView": 3,
      "byteOffset": 6291120,
      "componentType": 5126,
      "count": 65532,
      "max": [
        0.9999989867210388,
        0.9998913407325745,
        0.9999890923500061,
        1.0
      ],
      "min": [
        -0.9993704557418823,
        -0.9906322360038757,
        -0.9999987483024597,
        -1.0
      ],
      "type": "VEC4"
    },
    {
      "bufferView": 1,
      "byteOffset": 3145560,
      "componentType": 5126,
      "count": 65532,
      "max": [
        0.9049720168113708,
        0.9862920045852661
      ],
      "min": [
        0.029246000573039055,
        0.013063999824225903
      ],
      "type": "VEC2"
    },
    {
      "bufferView": 0,
      "byteOffset": 2085096,
      "componentType": 5125,
      "count": 87156,
      "type": "SCALAR"
    },
    {
      "bufferView": 2,
      "byteOffset": 11009448,
      "componentType": 5126,
      "count": 58344,
      "max": [
        0.4608690142631531,
        0.33962199091911316,
        0.4930950105190277
      ],
      "min": [
        -0.4048539996147156,
        -0.5174070000648499,
        -0.26720699667930603
      ],
      "type": "VEC3"
    },
    {
      "bufferView": 2,
      "byteOffset": 11709576,
      "componentType": 5126,
      "count": 58344,
      "max": [
        0.999323844909668,
        0.9999405145645142,
        0.9999510049819946
      ],
      "min": [
        -0.9997430443763733,
        -1.0,
        -0.9998798370361328
      ],
      "type": "VEC3"
    },
    {
      "bufferView": 3,
      "byteOffset": 7339632,
      "componentType": 5126,
      "count": 58344,
      "max": [
        0.9945321083068848,
        0.9994814395904541,
        0.9999873638153076,
        1.0
      ],
      "min": [
        -0.9916068911552429,
        -0.9985572099685669,
        -0.9999982118606567,
        -1.0
      ],
      "type": "VEC4"
    },
    {
      "bufferView": 1,
      "byteOffset": 3669816,
      "componentType": 5126,
      "count": 58344,
      "max": [
        0.9923269748687744,
        0.9841870069503784
      ],
      "min": [
        0.006816000211983919,
        0.013063999824225903
      ],
      "type": "VEC2"
    },
    {
      "bufferView": 0,
      "byteOffset": 2433720,
      "componentType": 5125,
      "count": 75591,
      "type": "SCALAR"
    }
  ],
  "asset": {
    "extras": {
      "author": "FunctionalResearch_3D (https://sketchfab.com/FunctionalResearch)",
      "license": "CC-BY-4.0 (http://creativecommons.org/licenses/by/4.0/)",
      "source": "https://sketchfab.com/3d-models/soccer-ball-a51de12e975a425184496fbabc728ca3",
      "title": "Soccer Ball"
    },
    "generator": "Sketchfab-15.68.0",
    "version": "2.0"
  },
  "bufferViews": [
    {
      "buffer": 0,
      "byteLength": 2736084,
      "name": "floatBufferViews",
      "target": 34963
    },
    {
      "buffer": 0,
      "byteLength": 4136568,
      "byteOffset": 2736084,
      "byteStride": 8,
      "name": "floatBufferViews",
      "target": 34962
    },
    {
      "buffer": 0,
      "byteLength": 12409704,
      "byteOffset": 6872652,
      "byteStride": 12,
      "name": "floatBufferViews",
      "target": 34962
    },
    {
      "buffer": 0,
      "byteLength": 8273136,
      "byteOffset": 19282356,
      "byteStride": 16,
      "name": "floatBufferViews",
      "target": 34962
    }
  ],
  "buffers": [
    {
      "byteLength": 27555492,
      "uri": "scene.bin"
    }
  ],
  "images": [
    {
      "uri": "textures/Material.004_baseColor.png"
    },
    {
      "uri": "textures/Material.004_normal.png"
    }
  ],
  "materials": [
    {
      "doubleSided": true,
      "name": "Material.004",
      "normalTexture": {
        "index": 1
      },
      "pbrMetallicRoughness": {
        "baseColorTexture": {
          "index": 0
        },
        "metallicFactor": 0.0,
        "roughnessFactor": 0.6
      }
    }
  ],
  "meshes": [
    {
      "name": "Object_0",
      "primitives": [
        {
          "attributes": {
            "NORMAL": 1,
            "POSITION": 0,
            "TANGENT": 2,
            "TEXCOORD_0": 3
          },
          "indices": 4,
          "material": 0,
          "mode": 4
        }
      ]
    },
    {
      "name": "Object_1",
      "primitives": [
        {
          "attributes": {
            "NORMAL": 6,
            "POSITION": 5,
            "TANGENT": 7,
            "TEXCOORD_0": 8
          },
          "indices": 9,
          "material": 0,
          "mode": 4
        }
      ]
    },
    {
      "name": "Object_2",
      "primitives": [
        {
          "attributes": {
            "NORMAL": 11,
            "POSITION": 10,
            "TANGENT": 12,
            "TEXCOORD_0": 13
          },
          "indices": 14,
          "material": 0,
          "mode": 4
        }
      ]
    },
    {
      "name": "Object_3",
      "primitives": [
        {
          "attributes": {
            "NORMAL": 16,
            "POSITION": 15,
            "TANGENT": 17,
            "TEXCOORD_0": 18
          },
          "indices": 19,
          "material": 0,
          "mode": 4
        }
      ]
    },
    {
      "name": "Object_4",
      "primitives": [
        {
          "attributes": {
            "NORMAL": 21,
            "POSITION": 20,
            "TANGENT": 22,
            "TEXCOORD_0": 23
          },
          "indices": 24,
          "material": 0,
          "mode": 4
        }
      ]
    },
    {
      "name": "Object_5",
      "primitives": [
        {
          "attributes": {
            "NORMAL": 26,
            "POSITION": 25,
            "TANGENT": 27,
            "TEXCOORD_0": 28
          },
          "indices": 29,
          "material": 0,
          "mode": 4
        }
      ]
    },
    {
      "name": "Object_6",
      "primitives": [
        {
          "attributes": {
            "NORMAL": 31,
            "POSITION": 30,
            "TANGENT": 32,
            "TEXCOORD_0": 33
          },
          "indices": 34,
          "material": 0,
          "mode": 4
        }
      ]
    },
    {
      "name": "Object_7",
      "primitives": [
        {
          "attributes": {
            "NORMAL": 36,
            "POSITION": 35,
            "TANGENT": 37,
            "TEXCOORD_0": 38
          },
          "indices": 39,
          "material": 0,
          "mode": 4
        }
      ]
    }
  ],
  "nodes": [
    {
      "children": [
        1
      ],
      "matrix": [
        1.0,
        0.0,
        0.0,
        0.0,
        0.0,
        2.220446049250313e-16,
        -1.0,
        0.0,
        0.0,
        1.0,
        2.220446049250313e-16,
        0.0,
        0.0,
        0.0,
        0.0,
        1.0
      ],
      "name": "Sketchfab_model"
    },
    {
      "children": [
        2,
        3,
        4,
        5,
        6,
        7,
        8,
        9
      ],
      "name": "pallone calcio2.obj.cleaner.materialmerger.gles"
    },
    {
      "mesh": 0,
      "name": "Object_2"
    },
    {
      "mesh": 1,
      "name": "Object_3"
    },
    {
      "mesh": 2,
      "name": "Object_4"
    },
    {
      "mesh": 3,
      "name": "Object_5"
    },
    {
      "mesh": 4,
      "name": "Object_6"
    },
    {
      "mesh": 5,
      "name": "Object_7"
    },
    {
      "mesh": 6,
      "name": "Object_8"
    },
    {
      "mesh": 7,
      "name": "Object_9"
    }
  ],
  "samplers": [
    {
      "magFilter": 9729,
      "minFilter": 9987,
      "wrapS": 10497,
      "wrapT": 10497
    }
  ],
  "scene": 0,
  "scenes": [
    {
      "name": "Sketchfab_Scene",
      "nodes": [
        0
      ]
    }
  ],
  "textures": [
    {
      "sampler": 0,
      "source": 0
    },
    {
      "sampler": 0,
      "source": 1
    }
  ]
}
